<svg width="14" height="15" viewBox="0 0 14 15" fill="none" xmlns="http://www.w3.org/2000/svg">
<g clip-path="url(#clip0_134_739)">
<path fill-rule="evenodd" clip-rule="evenodd" d="M7.78736 7.4717C7.87587 7.41773 7.95096 7.30463 8.01151 7.17894C8.80843 7.50465 9.36845 8.2743 9.36845 9.17187C9.36845 10.3643 8.38011 11.3309 7.16095 11.3309C6.66048 11.3309 6.19891 11.168 5.82864 10.8935C5.70719 10.8359 5.60726 10.7807 5.52548 10.7355C5.39865 10.6654 5.31547 10.6194 5.26339 10.6266C5.11115 10.6476 5.15535 10.7876 5.19552 10.9149C5.22278 11.0013 5.24821 11.0818 5.20886 11.1151C5.16769 11.1498 5.03435 11.0227 4.87854 10.8742C4.66643 10.6719 4.4127 10.43 4.29306 10.5027C4.19846 10.5601 4.2903 10.716 4.40273 10.9068L4.41107 10.9209C4.45856 11.0016 4.5136 11.0837 4.56382 11.1586C4.66592 11.3109 4.74815 11.4337 4.70701 11.4544C4.65728 11.4795 4.31076 11.2456 4.01875 10.9209C3.90604 10.7956 3.79687 10.6598 3.69541 10.5336V10.5335C3.47334 10.2572 3.28832 10.027 3.18446 10.0543C3.05952 10.0871 3.15404 10.3448 3.29291 10.5928C3.35785 10.7088 3.43424 10.8268 3.50037 10.9291V10.9291C3.60324 11.0881 3.68131 11.2088 3.653 11.2236C3.61479 11.2436 3.2786 10.9158 3.05026 10.5027C2.91464 10.2573 2.80075 9.98611 2.70856 9.76658C2.60857 9.52849 2.53409 9.35115 2.48505 9.33329C2.31466 9.27129 2.31466 9.6187 2.383 10.1201C2.39191 10.1855 2.40519 10.2541 2.42153 10.324C3.08427 12.4683 5.12015 14.0296 7.52887 14.0296C10.4752 14.0296 12.8636 11.6936 12.8636 8.81204C12.8636 6.06938 10.7 3.82099 7.95106 3.61049C7.95453 3.48129 8.02196 3.22508 8.02196 3.22508C8.02196 3.22508 8.50726 2.05091 8.53292 1.80001C8.5346 1.78335 8.53661 1.76526 8.53878 1.74599C8.56901 1.47489 8.62525 0.970825 8.1916 0.970825C7.96001 0.970825 7.85233 1.14311 7.72916 1.34014V1.34014C7.68187 1.41579 7.63229 1.49508 7.57256 1.56967C7.14233 2.10693 6.41889 2.77786 6.00869 3.1353C5.14165 3.8908 4.29099 4.5117 3.79486 4.87383L3.79483 4.87386C3.56919 5.03855 3.41689 5.14972 3.36976 5.19566C3.01457 5.54192 1.74102 7.8391 1.74102 7.8391C1.74102 7.8391 1.32917 8.57611 1.47556 8.7256C1.62195 8.87506 1.97497 8.84081 1.97497 8.84081C1.97497 8.84081 6.71748 7.75282 7.14207 7.66702C7.25639 7.64391 7.33709 7.63057 7.39904 7.62034C7.56725 7.59257 7.59745 7.58757 7.78736 7.4717ZM4.43423 6.07356C4.17966 6.31553 3.75747 6.8931 3.75747 6.8931C3.75747 6.8931 4.54212 6.94144 4.97426 6.53067C5.40642 6.11988 5.30741 5.41983 5.30741 5.41983C5.30741 5.41983 4.68878 5.83159 4.43423 6.07356Z" fill="#0B6DC3"/>
</g>
<defs>
<clipPath id="clip0_134_739">
<rect width="13.0588" height="13.0588" fill="white" transform="translate(0.627686 0.970703)"/>
</clipPath>
</defs>
</svg>
