<svg width="14" height="15" viewBox="0 0 14 15" fill="none" xmlns="http://www.w3.org/2000/svg">
<g clip-path="url(#clip0_134_526)">
<path fill-rule="evenodd" clip-rule="evenodd" d="M4.51901 0.985712C4.51648 0.978425 4.52191 0.970825 4.52962 0.970825L9.11625 0.970825C9.12117 0.970825 9.12553 0.974028 9.12698 0.978726L11.2337 7.78516C11.2359 7.79238 11.2305 7.7997 11.223 7.7997H8.16946C8.16573 7.7997 8.16305 7.80324 8.16407 7.80684L9.91533 13.9716C9.91875 13.9836 9.90307 13.9914 9.89559 13.9815L3.08992 4.93099C3.08436 4.92359 3.08964 4.91303 3.09888 4.91303H5.87019C5.87404 4.91303 5.87674 4.90923 5.87546 4.90559L4.51901 0.985712Z" fill="#F4D23C"/>
</g>
<defs>
<clipPath id="clip0_134_526">
<rect width="13.0588" height="13.0588" fill="white" transform="translate(0.627686 0.970703)"/>
</clipPath>
</defs>
</svg>
