<svg width="14" height="15" viewBox="0 0 14 15" fill="none" xmlns="http://www.w3.org/2000/svg">
<g clip-path="url(#clip0_134_35)">
<path fill-rule="evenodd" clip-rule="evenodd" d="M9.61243 11.0556C9.77377 10.4656 9.46059 9.25272 9.46059 9.25272C9.46059 9.25272 9.23344 10.2408 8.8785 10.606C8.5757 10.9175 8.20473 11.1335 7.67268 11.1903C8.10768 10.979 8.40683 10.5385 8.40683 10.0292C8.40683 9.31442 7.81735 8.73493 7.09019 8.73493C6.36302 8.73493 5.77351 9.31442 5.77351 10.0292C5.77351 10.2245 5.81751 10.4096 5.89625 10.5756C5.44143 10.2133 5.36992 9.63234 5.36992 9.63234C5.36992 9.63234 4.86205 11.7409 6.26143 12.7327C7.66079 13.7246 10.4021 12.8721 10.4021 12.8721C10.4021 12.8721 6.47912 15.6323 3.57216 12.6281C1.06805 10.0402 2.91858 6.63313 2.91858 6.63313C2.91858 6.63313 2.83866 6.94919 2.83866 7.31609C2.83866 7.68298 3.03759 7.96214 3.03759 7.96214C3.03759 7.96214 3.63097 6.71138 4.09278 6.20272C4.52984 5.72133 5.07772 5.33089 5.55095 4.99366C5.91522 4.73406 6.23527 4.50599 6.4264 4.29223C7.4792 3.11504 6.83368 0.970825 6.83368 0.970825C6.83368 0.970825 8.02045 2.01706 8.35176 3.36829C8.47807 3.88335 8.39681 4.46939 8.32417 4.99345C8.20623 5.84421 8.11092 6.53166 8.96293 6.48706C10.3398 6.41495 9.14333 4.29223 9.14333 4.29223C9.14333 4.29223 12.2665 5.93376 12.0332 8.80472C11.7999 11.6757 8.61939 12.3284 8.61939 12.3284C8.61939 12.3284 9.45105 11.6455 9.61243 11.0556Z" fill="#FF9D55"/>
</g>
<defs>
<clipPath id="clip0_134_35">
<rect width="13.0588" height="13.0588" fill="white" transform="translate(0.627686 0.970703)"/>
</clipPath>
</defs>
</svg>
