<svg width="14" height="15" viewBox="0 0 14 15" fill="none" xmlns="http://www.w3.org/2000/svg">
<g clip-path="url(#clip0_134_320)">
<path fill-rule="evenodd" clip-rule="evenodd" d="M10.038 13.9843C8.86007 14.0446 7.51152 14.0446 7.05324 13.9843C3.47844 13.514 0.627686 10.9003 0.627686 7.36749C0.627686 3.83464 3.551 0.970703 7.1571 0.970703C10.7632 0.970703 13.6865 3.83464 13.6865 7.36749C13.6865 9.01058 13.0541 10.509 12.0149 11.6419C11.7327 11.9495 12.1199 12.1653 12.5133 12.3845C12.8992 12.5996 13.291 12.8179 13.0633 13.1295C12.8123 13.4728 11.452 13.9119 10.038 13.9843ZM6.2389 6.56789C6.2389 7.11988 5.78212 7.56737 5.21868 7.56737C4.65524 7.56737 4.19846 7.11988 4.19846 6.56789C4.19846 6.19767 4.4039 5.87449 4.70918 5.70175C4.72675 6.18306 5.1225 6.56786 5.60812 6.56786H6.2389V6.56789ZM9.40097 5.70175C9.3834 6.18306 8.98765 6.56786 8.50203 6.56786H7.87125V6.56789C7.87125 7.11988 8.32803 7.56737 8.89147 7.56737C9.45491 7.56737 9.91169 7.11988 9.91169 6.56789C9.91169 6.19767 9.70625 5.87449 9.40097 5.70175Z" fill="#5269AD"/>
</g>
<defs>
<clipPath id="clip0_134_320">
<rect width="13.0588" height="13.0588" fill="white" transform="translate(0.627686 0.970703)"/>
</clipPath>
</defs>
</svg>
