<svg width="14" height="14" viewBox="0 0 14 14" fill="none" xmlns="http://www.w3.org/2000/svg">
<g clip-path="url(#clip0_134_471)">
<path fill-rule="evenodd" clip-rule="evenodd" d="M3.50403 11.6867C3.50049 11.6867 3.49801 11.6833 3.49919 11.6799L6.83314 2.2594C6.83388 2.25735 6.83582 2.25598 6.83799 2.25598L10.3971 2.25598C10.3992 2.25598 10.4012 2.25736 10.4019 2.25942L13.6864 11.6799C13.6876 11.6833 13.6851 11.6867 13.6816 11.6867H3.60422H3.50403ZM0.633064 11.7236C0.629483 11.7236 0.627004 11.72 0.62826 11.7167L3.11096 5.08852C3.11171 5.08651 3.11362 5.08518 3.11576 5.08518H5.27294C5.27651 5.08518 5.27899 5.08873 5.27776 5.09207L2.87706 11.7202C2.87633 11.7222 2.8744 11.7236 2.87224 11.7236H0.633064Z" fill="#D97845"/>
</g>
<defs>
<clipPath id="clip0_134_471">
<rect width="13.0588" height="13.0588" fill="white" transform="translate(0.627686 0.470581)"/>
</clipPath>
</defs>
</svg>
