<svg width="13" height="14" viewBox="0 0 13 14" fill="none" xmlns="http://www.w3.org/2000/svg">
<path fill-rule="evenodd" clip-rule="evenodd" d="M11.2564 11.3152C11.2564 11.3152 9.60978 12.6359 6.33303 12.0894C3.84701 11.6747 2.52108 8.93427 2.52108 7.46123C2.52108 3.96876 5.10596 3.17398 6.85352 3.17398C8.60106 3.17398 9.74108 4.87775 9.74108 6.19689C9.74108 7.51604 8.80809 8.66986 7.35614 8.66986C5.90421 8.66986 5.47419 7.65053 5.47419 6.71338C5.47419 5.77626 6.23239 5.44609 6.92387 5.44609C7.61535 5.44609 7.85212 6.03644 7.85212 6.54382C7.85212 7.05123 7.45844 7.23293 7.13008 7.23293C6.80172 7.23293 6.76925 7.06727 6.64359 6.89317C6.5179 6.71909 6.80387 6.06013 6.33303 6.06013C5.8622 6.06013 5.77444 6.81767 5.77444 6.81767C5.77444 6.81767 5.94609 8.27998 7.35614 8.25476C8.76621 8.2295 9.43514 7.1394 9.24074 6.06013C9.04634 4.98084 7.9989 3.83399 6.16062 4.06573C4.32233 4.29747 3.57178 6.15489 3.90261 8.13983C4.23345 10.1248 6.6114 11.2749 8.48108 10.8611C10.3508 10.4473 12.213 9.09376 12.213 5.66192C12.213 2.23005 9.24074 0.167183 5.69662 0.507154C2.1525 0.847124 -0.0475259 3.94562 0.0932951 7.66854C0.234116 11.3914 3.76672 13.4191 6.7539 13.5236C9.74108 13.6281 11.5724 11.8989 11.5724 11.8989C11.5724 11.8989 11.9842 11.5316 11.8227 11.2448C11.6613 10.9581 11.2564 11.3152 11.2564 11.3152Z" fill="#FA7179"/>
</svg>
