<svg width="14" height="15" viewBox="0 0 14 15" fill="none" xmlns="http://www.w3.org/2000/svg">
<g clip-path="url(#clip0_134_155)">
<path fill-rule="evenodd" clip-rule="evenodd" d="M11.3956 9.80875C11.3956 12.1395 9.49899 14.0289 7.15945 14.0289C4.8199 14.0289 2.92334 12.1395 2.92334 9.80875C2.92334 7.54192 6.93031 1.31625 7.15006 0.976514C7.15509 0.968766 7.16384 0.968766 7.16883 0.976514C7.38859 1.31625 11.3956 7.54192 11.3956 9.80875ZM6.4533 12.676C4.3037 12.2056 4.67154 9.82443 4.67154 9.82443C4.67154 9.82443 5.25852 11.2619 6.68298 11.7275C8.10741 12.1931 9.82883 11.5102 9.82883 11.5102C9.82883 11.5102 8.60291 13.1463 6.4533 12.676Z" fill="#5090D6"/>
</g>
<defs>
<clipPath id="clip0_134_155">
<rect width="13.0588" height="13.0588" fill="white" transform="translate(0.627686 0.970642)"/>
</clipPath>
</defs>
</svg>
