<svg width="200" height="200" viewBox="0 0 100 100" fill="none" xmlns="http://www.w3.org/2000/svg">
<g clip-path="url(#clip0_17_198)">
<path fill-rule="evenodd" clip-rule="evenodd" d="M44.8023 94.1175C46.7021 94.4269 48.6478 94.5874 50.6291 94.5874C71.7232 94.5874 88.8234 76.391 88.8234 53.9447C88.8234 31.4981 71.7232 13.3018 50.6291 13.3018C49.2138 13.3018 47.8164 13.3837 46.4412 13.5433C56.905 21.979 63.8234 36.5919 63.8234 53.2056C63.8234 70.6719 56.1767 85.9268 44.8023 94.1175ZM49.9345 106.411C77.5488 106.411 99.9345 82.59 99.9345 53.2056C99.9345 23.8212 77.5488 0.000488281 49.9345 0.000488281C22.3203 0.000488281 -0.0654297 23.8212 -0.0654297 53.2056C-0.0654297 82.59 22.3203 106.411 49.9345 106.411Z" fill="url(#paint0_linear_17_198)"/>
</g>
<defs>
<linearGradient id="paint0_linear_17_198" x1="-10.0743" y1="7.97996" x2="71.7563" y2="128.408" gradientUnits="userSpaceOnUse">
<stop stop-color="white"/>
<stop offset="1" stop-color="white" stop-opacity="0"/>
</linearGradient>
<clipPath id="clip0_17_198">
<rect width="100" height="106.41" fill="white"/>
</clipPath>
</defs>
</svg>
