<svg width="200" height="200" viewBox="0 0 100 100" fill="none" xmlns="http://www.w3.org/2000/svg">
<path fill-rule="evenodd" clip-rule="evenodd" d="M29.7961 0.113996C29.7767 0.0581953 29.8183 0 29.8773 0H65.0002C65.0379 0 65.0713 0.0245287 65.0824 0.0605043L81.2148 52.1818C81.2318 52.2371 81.1906 52.2932 81.1326 52.2932H57.75C57.7215 52.2932 57.7009 52.3203 57.7088 52.3479L71.1193 99.5559C71.1455 99.6475 71.0254 99.7072 70.9681 99.6311L18.8526 30.3256C18.81 30.2689 18.8504 30.1881 18.9213 30.1881H40.1429C40.1724 30.1881 40.1931 30.159 40.1834 30.1311L29.7961 0.113996Z" fill="url(#paint0_linear_17_268)"/>
<defs>
<linearGradient id="paint0_linear_17_268" x1="12.5913" y1="7.47373" x2="95.0122" y2="88.2637" gradientUnits="userSpaceOnUse">
<stop stop-color="white"/>
<stop offset="1" stop-color="white" stop-opacity="0"/>
</linearGradient>
</defs>
</svg>
