<svg width="200" height="200" viewBox="0 0 100 100" fill="none" xmlns="http://www.w3.org/2000/svg">
<g clip-path="url(#clip0_17_266)">
<path fill-rule="evenodd" clip-rule="evenodd" d="M20.0637 79.2926L36.1031 74.6418L49.9566 99.9721C49.9748 100.005 50.0219 100.005 50.0399 99.9721L63.8934 74.6418L79.933 79.2926C79.969 79.3029 80.0024 79.2695 79.9916 79.2336L75.3401 63.5115L99.9719 50.0398C100.005 50.0219 100.005 49.9748 99.9721 49.9568L75.1371 36.374L79.9916 19.9658C80.0024 19.9299 79.969 19.8965 79.933 19.9068L63.5172 24.6668L50.0399 0.0246461C50.0219 -0.00821478 49.9748 -0.00821569 49.9568 0.0246453L36.4795 24.6668L20.0637 19.9068C20.0277 19.8965 19.9943 19.9299 20.0051 19.9658L24.8596 36.374L0.0246461 49.9568C-0.00821478 49.9748 -0.0082157 50.0219 0.0246453 50.0398L24.6564 63.5115L20.0051 79.2336C19.9943 79.2695 20.0277 79.3029 20.0637 79.2926ZM32.5102 50.1711L43.8732 56.3857L50.0879 67.7486C50.1059 67.7816 50.1531 67.7816 50.1711 67.7486L56.3858 56.3857L67.7486 50.1711C67.7815 50.1531 67.7815 50.1059 67.7486 50.0879L56.3858 43.8732L50.1711 32.5104C50.1531 32.4773 50.1059 32.4773 50.0879 32.5104L43.8732 43.8732L32.5102 50.0879C32.4773 50.1059 32.4773 50.1531 32.5102 50.1711Z" fill="url(#paint0_linear_17_266)"/>
</g>
<defs>
<linearGradient id="paint0_linear_17_266" x1="-10.0086" y1="7.49854" x2="65.0271" y2="125.006" gradientUnits="userSpaceOnUse">
<stop stop-color="white"/>
<stop offset="1" stop-color="white" stop-opacity="0"/>
</linearGradient>
<clipPath id="clip0_17_266">
<rect width="100" height="100" fill="white"/>
</clipPath>
</defs>
</svg>
