<svg width="175" height="175" viewBox="0 0 100 100" fill="none" xmlns="http://www.w3.org/2000/svg">
<path fill-rule="evenodd" clip-rule="evenodd" d="M34.9047 93.3064C49.5537 93.3064 62.0951 85.1648 67.2727 73.6234C67.3359 73.4825 46.4857 79.0419 47.1506 77.0767C47.4475 76.1991 60.2287 71.53 69.5406 66.0839C74.8928 62.9536 77.3574 56.3273 77.3574 56.3273C77.3574 56.3273 68.3404 60.7052 63.782 61.8157C54.5961 64.054 46.51 63.813 46.51 63.5798C46.51 63.0755 59.9367 60.5243 78.5984 49.1523C87.3764 43.8032 89.7605 34.5896 89.7605 34.5896C89.7605 34.5896 80.11 40.338 74.276 42.2359C60.4408 46.7364 47.8154 48.0927 47.8154 47.4837C47.8154 46.1798 58.9262 43.1245 70.7062 37.4165C76.8312 34.4488 82.1357 30.5714 88.2828 26.2595C98.341 19.2046 99.9998 6.63977 99.9998 6.63977C99.9998 6.63977 90.0795 13.0382 85.2383 15.1631C65.2619 23.931 47.6228 28.5302 34.9047 29.5259C15.7063 31.029 0 44.4241 0 61.8157C0 79.2075 15.6273 93.3064 34.9047 93.3064Z" fill="url(#paint0_linear_18_374)"/>
<defs>
<linearGradient id="paint0_linear_18_374" x1="6.38298" y1="12.7658" x2="93.617" y2="92.0211" gradientUnits="userSpaceOnUse">
<stop stop-color="white"/>
<stop offset="1" stop-color="white" stop-opacity="0"/>
</linearGradient>
</defs>
</svg>
