<svg width="200" height="200" viewBox="0 0 100 100" fill="none" xmlns="http://www.w3.org/2000/svg">
<path fill-rule="evenodd" clip-rule="evenodd" d="M19.0279 86.0656C18.6847 85.7427 18.3452 85.4136 18.0097 85.0781C0.297873 67.3664 0.297876 38.6498 18.0097 20.9381C35.7214 3.22616 92.1582 2.04126 92.1582 2.04126C92.1582 2.04126 99.8617 67.3664 82.15 85.0781C66.4195 100.809 42.0089 102.568 24.3365 90.3576L38.5763 72.8828L61.34 67.9681L42.7582 66.1105L54.5671 54.0867L68.0093 51.142L57.38 47.9941L68.0093 28.8191L52.8902 45.7777L47.0517 37.5388L49.107 51.142L38.5763 63.0134L33.6949 47.9939V67.9681L19.0279 86.0656Z" fill="url(#paint0_linear_15_175)"/>
<defs>
<linearGradient id="paint0_linear_15_175" x1="4.8205" y1="2.03999" x2="56.2474" y2="115.355" gradientUnits="userSpaceOnUse">
<stop stop-color="white"/>
<stop offset="1" stop-color="white" stop-opacity="0"/>
</linearGradient>
</defs>
</svg>
