<svg width="200" height="200" viewBox="0 0 100 100" fill="none" xmlns="http://www.w3.org/2000/svg">
<path fill-rule="evenodd" clip-rule="evenodd" d="M22.0242 85.8887C21.9971 85.8887 21.9781 85.8619 21.9871 85.8363L47.5174 13.6973C47.5231 13.6816 47.5379 13.6711 47.5545 13.6711H74.8088C74.8254 13.6711 74.8404 13.6816 74.8459 13.6974L99.9975 85.8365C100.006 85.8621 99.9873 85.8887 99.9604 85.8887H22.7914H22.0242ZM0.0393176 86.1709C0.0118969 86.1709 -0.00708695 86.1435 0.00253139 86.118L19.0142 35.3617C19.0199 35.3463 19.0346 35.3361 19.051 35.3361H35.5699C35.5973 35.3361 35.6162 35.3633 35.6068 35.3889L17.2231 86.1451C17.2175 86.1605 17.2027 86.1709 17.1862 86.1709H0.0393176Z" fill="url(#paint0_linear_17_270)"/>
<defs>
<linearGradient id="paint0_linear_17_270" x1="-10.0089" y1="19.1077" x2="35.7157" y2="117.874" gradientUnits="userSpaceOnUse">
<stop stop-color="white"/>
<stop offset="1" stop-color="white" stop-opacity="0"/>
</linearGradient>
</defs>
</svg>
