<svg width="200" height="200" viewBox="0 0 100 100" fill="none" xmlns="http://www.w3.org/2000/svg">
<path fill-rule="evenodd" clip-rule="evenodd" d="M82.455 67.6796C82.455 85.5276 67.9317 99.9964 50.0163 99.9964C32.1009 99.9964 17.5776 85.5276 17.5776 67.6796C17.5776 50.321 48.2616 2.64693 49.9444 0.0453486C49.9829 -0.0139772 50.0499 -0.0139767 50.0882 0.0453492C51.771 2.64693 82.455 50.321 82.455 67.6796ZM44.6089 89.6358C28.1479 86.0341 30.9647 67.7997 30.9647 67.7997C30.9647 67.7997 35.4597 78.8071 46.3677 82.3727C57.2755 85.9382 70.4575 80.7089 70.4575 80.7089C70.4575 80.7089 61.0698 93.2374 44.6089 89.6358Z" fill="url(#paint0_linear_15_352)"/>
<defs>
<linearGradient id="paint0_linear_15_352" x1="11.0841" y1="7.4993" x2="93.7837" y2="91.5252" gradientUnits="userSpaceOnUse">
<stop stop-color="white"/>
<stop offset="1" stop-color="white" stop-opacity="0"/>
</linearGradient>
</defs>
</svg>
