<svg width="14" height="15" viewBox="0 0 14 15" fill="none" xmlns="http://www.w3.org/2000/svg">
<g clip-path="url(#clip0_134_661)">
<path fill-rule="evenodd" clip-rule="evenodd" d="M9.35565 0.983427C9.36516 0.969866 9.38383 0.96657 9.3974 0.976066L10.3246 1.62532C10.3382 1.63482 10.3415 1.65351 10.332 1.66707L9.04145 3.51016C9.66886 3.7106 10.0963 3.92681 10.0963 3.92681C10.0963 3.92681 9.0515 5.72398 7.2794 5.72398C5.5073 5.72398 4.24807 4.04898 4.24807 4.04898C4.24807 4.04898 4.69457 3.76403 5.35644 3.51964L3.94088 1.83267C3.93024 1.81998 3.9319 1.80108 3.94458 1.79044L4.81169 1.06284C4.82439 1.05219 4.84329 1.05385 4.85393 1.06653L6.64625 3.20254C6.79972 3.18518 6.95607 3.17548 7.11384 3.17548C7.34061 3.17548 7.5671 3.19272 7.78821 3.22197L9.35565 0.983427ZM9.70625 5.80909C10.1791 5.47134 10.8947 4.58982 10.8947 4.58982C10.8947 4.58982 12.7226 6.03828 12.7226 9.10955C12.7226 12.1808 9.56252 14.0293 9.56252 14.0293C9.56252 14.0293 8.05273 12.5045 7.68208 10.5717C7.31146 8.63885 8.23035 6.49266 8.23035 6.49266C8.23035 6.49266 9.23333 6.14683 9.70625 5.80909ZM4.61323 5.80909C4.14033 5.47134 3.42475 4.58982 3.42475 4.58982C3.42475 4.58982 1.59692 6.03828 1.59692 9.10955C1.59692 12.1808 4.75695 14.0293 4.75695 14.0293C4.75695 14.0293 6.26675 12.5045 6.6374 10.5717C7.00802 8.63885 6.08913 6.49266 6.08913 6.49266C6.08913 6.49266 5.08615 6.14683 4.61323 5.80909Z" fill="#91C12F"/>
</g>
<defs>
<clipPath id="clip0_134_661">
<rect width="13.0588" height="13.0588" fill="white" transform="translate(0.627686 0.970581)"/>
</clipPath>
</defs>
</svg>
