<svg width="200" height="200" viewBox="0 0 100 100" fill="none" xmlns="http://www.w3.org/2000/svg">
<path fill-rule="evenodd" clip-rule="evenodd" d="M66.836 0.0986385C66.9089 -0.00521228 67.0519 -0.0304508 67.1558 0.0422664L74.2562 5.01405C74.3601 5.08677 74.3853 5.22989 74.3126 5.33374L64.43 19.4475C69.2345 20.9824 72.5077 22.638 72.5077 22.638C72.5077 22.638 64.5069 36.4001 50.9368 36.4001C37.3667 36.4001 27.7239 23.5736 27.7239 23.5736C27.7239 23.5736 31.1431 21.3916 36.2114 19.5201L25.3716 6.60183C25.2901 6.5047 25.3028 6.35991 25.3999 6.27843L32.0399 0.706719C32.1372 0.625229 32.2819 0.637895 32.3634 0.735014L46.0884 17.0918C47.2636 16.9589 48.4608 16.8846 49.669 16.8846C51.4056 16.8846 53.14 17.0166 54.8331 17.2406L66.836 0.0986385ZM69.5208 37.0519C73.1421 34.4656 78.6218 27.7152 78.6218 27.7152C78.6218 27.7152 92.6187 38.807 92.6187 62.3257C92.6187 85.8443 68.4202 99.9992 68.4202 99.9992C68.4202 99.9992 56.8587 88.3232 54.0204 73.5222C51.1823 58.7212 58.2189 42.2865 58.2189 42.2865C58.2189 42.2865 65.8993 39.6382 69.5208 37.0519V37.0519ZM30.5202 37.0519C26.8989 34.4656 21.4192 27.7152 21.4192 27.7152C21.4192 27.7152 7.42236 38.807 7.42236 62.3257C7.42236 85.8443 31.6208 99.9992 31.6208 99.9992C31.6208 99.9992 43.1823 88.3232 46.0206 73.5222C48.8587 58.7212 41.8222 42.2865 41.8222 42.2865C41.8222 42.2865 34.1417 39.6382 30.5202 37.0519V37.0519Z" fill="url(#paint0_linear_15_264)"/>
<defs>
<linearGradient id="paint0_linear_15_264" x1="-1.10485" y1="7.4994" x2="78.2845" y2="113.422" gradientUnits="userSpaceOnUse">
<stop stop-color="white"/>
<stop offset="1" stop-color="white" stop-opacity="0"/>
</linearGradient>
</defs>
</svg>
