<svg width="14" height="14" viewBox="0 0 14 14" fill="none" xmlns="http://www.w3.org/2000/svg">
<g clip-path="url(#clip0_134_439)">
<path fill-rule="evenodd" clip-rule="evenodd" d="M6.47858 12.0208C6.72667 12.0588 6.98076 12.0785 7.23949 12.0785C9.99413 12.0785 12.2272 9.8454 12.2272 7.09075C12.2272 4.33608 9.99413 2.10299 7.23949 2.10299C7.05467 2.10299 6.87218 2.11305 6.6926 2.13263C8.05906 3.16788 8.96251 4.96119 8.96251 7.00005C8.96251 9.14354 7.96395 11.0156 6.47858 12.0208ZM7.14879 13.5295C10.7549 13.5295 13.6782 10.6061 13.6782 7.00005C13.6782 3.39396 10.7549 0.470642 7.14879 0.470642C3.54269 0.470642 0.619385 3.39396 0.619385 7.00005C0.619385 10.6061 3.54269 13.5295 7.14879 13.5295Z" fill="#5A5465"/>
</g>
<defs>
<clipPath id="clip0_134_439">
<rect width="13.0588" height="13.0588" fill="white" transform="translate(0.627686 0.470581)"/>
</clipPath>
</defs>
</svg>
