<svg width="200" height="200" viewBox="0 0 100 100" fill="none" xmlns="http://www.w3.org/2000/svg">
<g clip-path="url(#clip0_17_261)">
<path fill-rule="evenodd" clip-rule="evenodd" d="M54.8239 49.7817C55.5016 49.3684 56.0766 48.5024 56.5403 47.5399C62.6428 50.034 66.9313 55.9278 66.9313 62.801C66.9313 71.9319 59.3629 79.334 50.027 79.334C46.1946 79.334 42.66 78.0866 39.8247 75.9844C38.8946 75.544 38.1293 75.1209 37.5032 74.7747C36.5319 74.2377 35.895 73.8856 35.4961 73.9407C34.3303 74.1014 34.6688 75.1741 34.9764 76.1485C35.1852 76.8104 35.3799 77.427 35.0786 77.6813C34.7633 77.9477 33.7422 76.9741 32.5491 75.8366C30.9249 74.2879 28.9819 72.4354 28.0657 72.9918C27.3413 73.4319 28.0446 74.6254 28.9055 76.0864L28.9694 76.1948C29.3331 76.8124 29.7545 77.4413 30.1391 78.0151C30.9209 79.1813 31.5506 80.1211 31.2356 80.2801C30.8547 80.4723 28.2012 78.6813 25.9651 76.1948C25.102 75.2352 24.2661 74.195 23.4891 73.2284V73.2282C21.7885 71.1122 20.3717 69.3495 19.5764 69.5583C18.6197 69.8094 19.3434 71.7829 20.4069 73.6819C20.9042 74.57 21.4891 75.4743 21.9956 76.2573V76.2575C22.7833 77.4751 23.3811 78.3991 23.1643 78.5127C22.8717 78.6657 20.2973 76.1553 18.5488 72.9918C17.5102 71.1127 16.6381 69.0362 15.9321 67.3551C15.1665 65.5319 14.5961 64.1739 14.2206 64.0372C12.9158 63.5624 12.9158 66.2227 13.4391 70.0624C13.5074 70.5633 13.609 71.0887 13.7342 71.6237C18.8092 88.0442 34.3993 100 52.8444 100C75.4063 100 93.6961 82.112 93.6961 60.0456C93.6961 39.0432 77.128 21.8258 56.0774 20.2139C56.104 19.2245 56.6204 17.2625 56.6204 17.2625C56.6204 17.2625 60.3366 8.27118 60.5331 6.34983C60.5459 6.22231 60.5614 6.08374 60.578 5.93616C60.8094 3.86019 61.2401 0.000244141 57.9194 0.000244141C56.1459 0.000244141 55.3213 1.31951 54.3782 2.82835V2.82837C54.0161 3.40761 53.6364 4.01479 53.179 4.58599C49.8844 8.70017 44.3446 13.8379 41.2034 16.5751C34.5639 22.3604 28.0499 27.1151 24.2506 29.8881L24.2504 29.8883C22.5225 31.1495 21.3563 32.0008 20.9954 32.3526C18.2754 35.0041 8.52306 52.5952 8.52306 52.5952C8.52306 52.5952 5.36925 58.2389 6.49025 59.3836C7.61124 60.5282 10.3145 60.2659 10.3145 60.2659C10.3145 60.2659 46.6311 51.9344 49.8825 51.2774C50.7579 51.1004 51.3758 50.9983 51.8502 50.92C53.1383 50.7073 53.3696 50.669 54.8239 49.7817ZM29.1467 39.0752C27.1973 40.9282 23.9643 45.351 23.9643 45.351C23.9643 45.351 29.9729 45.7211 33.2821 42.5756C36.5915 39.4299 35.8333 34.0692 35.8333 34.0692C35.8333 34.0692 31.0959 37.2223 29.1467 39.0752Z" fill="url(#paint0_linear_17_261)"/>
</g>
<defs>
<linearGradient id="paint0_linear_17_261" x1="-2.50321" y1="7.49903" x2="76.2845" y2="115.394" gradientUnits="userSpaceOnUse">
<stop stop-color="white"/>
<stop offset="1" stop-color="white" stop-opacity="0"/>
</linearGradient>
<clipPath id="clip0_17_261">
<rect width="100" height="100" fill="white"/>
</clipPath>
</defs>
</svg>
