<svg width="14" height="15" viewBox="0 0 14 15" fill="none" xmlns="http://www.w3.org/2000/svg">
<g clip-path="url(#clip0_134_211)">
<path fill-rule="evenodd" clip-rule="evenodd" d="M3.24776 11.3254L5.34233 10.718L7.15143 14.0259C7.15381 14.0302 7.15995 14.0302 7.1623 14.0259L8.97141 10.718L11.066 11.3254C11.0707 11.3267 11.0751 11.3224 11.0736 11.3177L10.4662 9.26456L13.6828 7.50532C13.6871 7.50297 13.6871 7.49682 13.6829 7.49448L10.4397 5.72072L11.0736 3.578C11.0751 3.57331 11.0707 3.56895 11.066 3.5703L8.92228 4.1919L7.1623 0.973922C7.15995 0.96963 7.15381 0.96963 7.15146 0.973922L5.39148 4.1919L3.24776 3.5703C3.24307 3.56895 3.23871 3.57331 3.24011 3.578L3.87405 5.72072L0.630904 7.49448C0.626613 7.49682 0.626613 7.50297 0.630904 7.50532L3.84753 9.26456L3.24011 11.3177C3.23871 11.3224 3.24307 11.3267 3.24776 11.3254ZM4.87313 7.52246L6.35701 8.33402L7.16857 9.81788C7.17092 9.82219 7.17709 9.82219 7.17944 9.81788L7.991 8.33402L9.47486 7.52246C9.47914 7.52011 9.47914 7.51394 9.47486 7.51159L7.991 6.70003L7.17944 5.21617C7.17709 5.21186 7.17092 5.21186 7.16857 5.21617L6.35701 6.70003L4.87313 7.51159C4.86884 7.51394 4.86884 7.52011 4.87313 7.52246Z" fill="#EC8FE6"/>
</g>
<defs>
<clipPath id="clip0_134_211">
<rect width="13.0588" height="13.0588" fill="white" transform="translate(0.627686 0.970703)"/>
</clipPath>
</defs>
</svg>
