<svg width="14" height="15" viewBox="0 0 14 15" fill="none" xmlns="http://www.w3.org/2000/svg">
<g clip-path="url(#clip0_134_853)">
<path fill-rule="evenodd" clip-rule="evenodd" d="M2.87837 2.05624C3.03641 1.43227 3.60169 0.970581 4.27478 0.970581C4.77967 0.970581 5.2239 1.23035 5.48109 1.62352H5.90227C6.16393 1.35499 6.5295 1.18823 6.93404 1.18823C7.52715 1.18823 8.03654 1.5467 8.25737 2.05882H8.60998C8.83094 1.92088 9.09201 1.84117 9.37168 1.84117C9.96481 1.84117 10.4742 2.19965 10.695 2.71176H11.6539C11.6621 2.71176 11.6698 2.71396 11.6764 2.71781C11.7202 2.71381 11.7645 2.71176 11.8093 2.71176C12.6049 2.71176 13.2497 3.35666 13.2497 4.15219V8.47139L13.2498 8.4794L13.2497 8.48741V8.54962C13.2497 8.57597 13.249 8.60221 13.2476 8.62833C13.1609 11.6247 10.4667 14.0294 7.15563 14.0294C3.78995 14.0294 1.06152 11.5446 1.06152 8.4794C1.06152 6.99985 1.69725 5.65551 2.7335 4.66059C2.73092 6.103 2.75528 7.59421 2.86759 7.56863C3.16831 7.50007 2.93335 3.03243 2.87837 2.05624Z" fill="#CE416B"/>
</g>
<defs>
<clipPath id="clip0_134_853">
<rect width="13.0588" height="13.0588" fill="white" transform="translate(0.627686 0.970581)"/>
</clipPath>
</defs>
</svg>
