<svg width="190" height="190" viewBox="0 0 100 100" fill="none" xmlns="http://www.w3.org/2000/svg">
<g clip-path="url(#clip0_18_372)">
<path fill-rule="evenodd" clip-rule="evenodd" d="M17.2329 8.31311C18.4431 3.53494 22.7718 -0.000488281 27.9261 -0.000488281C31.7923 -0.000488281 35.1941 1.98871 37.1636 4.99951H40.3888C42.3925 2.94318 45.192 1.66618 48.2898 1.66618C52.8316 1.66618 56.7324 4.41127 58.4234 8.33285H61.1236C62.8156 7.27656 64.8148 6.66617 66.9564 6.66617C71.4984 6.66617 75.399 9.41127 77.09 13.3329H84.4328C84.4955 13.3329 84.5543 13.3497 84.6049 13.3792C84.9402 13.3485 85.2799 13.3329 85.623 13.3329C91.715 13.3329 96.6533 18.2713 96.6533 24.3632V57.4382L96.6535 57.4995L96.6533 57.5608V58.0372C96.6533 58.239 96.6478 58.4399 96.6369 58.6399C95.9732 81.5849 75.3414 99.9995 49.9867 99.9995C24.2134 99.9995 3.32007 80.9716 3.32007 57.4995C3.32007 46.1696 8.18821 35.8751 16.1235 28.2563C16.1037 39.3019 16.2903 50.721 17.1503 50.5251C19.4531 50.0001 17.6539 15.7885 17.2329 8.31311Z" fill="url(#paint0_linear_18_372)"/>
</g>
<defs>
<linearGradient id="paint0_linear_18_372" x1="-6.02159" y1="7.4983" x2="71.0724" y2="120.18" gradientUnits="userSpaceOnUse">
<stop stop-color="white"/>
<stop offset="1" stop-color="white" stop-opacity="0"/>
</linearGradient>
<clipPath id="clip0_18_372">
<rect width="100" height="100" fill="white"/>
</clipPath>
</defs>
</svg>
