<svg width="200" height="200" viewBox="0 0 100 100" fill="none" xmlns="http://www.w3.org/2000/svg">
<g clip-path="url(#clip0_15_350)">
<path fill-rule="evenodd" clip-rule="evenodd" d="M68.799 77.2266C70.0345 72.7088 67.6363 63.4211 67.6363 63.4211C67.6363 63.4211 65.8968 70.9874 63.1788 73.7838C60.8601 76.1692 58.0193 77.8237 53.945 78.2584C57.2761 76.6405 59.5669 73.2668 59.5669 69.3674C59.5669 63.8936 55.0529 59.4561 49.4845 59.4561C43.9161 59.4561 39.4019 63.8936 39.4019 69.3674C39.4019 70.8624 39.7388 72.2801 40.3417 73.5512C36.8589 70.7766 36.3113 66.3282 36.3113 66.3282C36.3113 66.3282 32.4222 82.4747 43.1382 90.07C53.854 97.6653 74.846 91.1368 74.846 91.1368C74.846 91.1368 44.8052 112.274 22.5447 89.2688C3.36903 69.4512 17.5398 43.3612 17.5398 43.3612C17.5398 43.3612 16.9278 45.7815 16.9278 48.5911C16.9278 51.4006 18.4511 53.5383 18.4511 53.5383C18.4511 53.5383 22.995 43.9604 26.5314 40.0653C29.8783 36.379 34.0738 33.3891 37.6976 30.8067C40.487 28.8188 42.9378 27.0723 44.4015 25.4354C52.4634 16.4209 47.5202 0.0012207 47.5202 0.0012207C47.5202 0.0012207 56.6081 8.01294 59.1452 18.3602C60.1124 22.3043 59.4902 26.792 58.9339 30.8051C58.0308 37.32 57.3009 42.5842 63.8253 42.2426C74.3687 41.6905 65.2068 25.4354 65.2068 25.4354C65.2068 25.4354 89.1232 38.0057 87.3365 59.9905C85.5495 81.9752 61.1947 86.9733 61.1947 86.9733C61.1947 86.9733 67.5632 81.7444 68.799 77.2266Z" fill="url(#paint0_linear_15_350)"/>
</g>
<defs>
<linearGradient id="paint0_linear_15_350" x1="4.99853" y1="7.5" x2="86.6652" y2="103.333" gradientUnits="userSpaceOnUse">
<stop stop-color="white"/>
<stop offset="1" stop-color="white" stop-opacity="0"/>
</linearGradient>
<clipPath id="clip0_15_350">
<rect width="100" height="100" fill="white"/>
</clipPath>
</defs>
</svg>
