<svg width="14" height="14" viewBox="0 0 14 14" fill="none" xmlns="http://www.w3.org/2000/svg">
<g clip-path="url(#clip0_134_447)">
<path fill-rule="evenodd" clip-rule="evenodd" d="M5.18607 12.6554C7.09906 12.6554 8.73682 11.5922 9.41295 10.085C9.42121 10.0666 6.69842 10.7926 6.78524 10.536C6.82401 10.4214 8.49309 9.81167 9.70912 9.10047C10.408 8.6917 10.7299 7.82637 10.7299 7.82637C10.7299 7.82637 9.55238 8.39808 8.95711 8.5431C7.75754 8.83539 6.70158 8.80392 6.70158 8.77347C6.70158 8.70761 8.45496 8.37446 10.892 6.8894C12.0383 6.19088 12.3496 4.98768 12.3496 4.98768C12.3496 4.98768 11.0893 5.73836 10.3275 5.9862C8.52079 6.57392 6.87206 6.75103 6.87206 6.67151C6.87206 6.50123 8.32299 6.10225 9.86133 5.35685C10.6612 4.96929 11.3539 4.46296 12.1566 3.89987C13.4701 2.97859 13.6867 1.33777 13.6867 1.33777C13.6867 1.33777 12.3912 2.17333 11.759 2.45081C9.15037 3.5958 6.84691 4.1964 5.18607 4.32643C2.67898 4.52272 0.62793 6.27196 0.62793 8.5431C0.62793 10.8143 2.66867 12.6554 5.18607 12.6554Z" fill="#89AAE3"/>
</g>
<defs>
<clipPath id="clip0_134_447">
<rect width="13.0588" height="13.0588" fill="white" transform="translate(0.627686 0.470581)"/>
</clipPath>
</defs>
</svg>
