<svg width="200" height="200" viewBox="0 0 100 100" fill="none" xmlns="http://www.w3.org/2000/svg">
<g clip-path="url(#clip0_17_259)">
<path fill-rule="evenodd" clip-rule="evenodd" d="M72.0609 99.6537C63.0408 100.115 52.7141 100.115 49.2047 99.6537C21.8301 96.0523 0 76.0377 0 48.9844C0 21.9311 22.3857 0 50 0C77.6143 0 100 21.9311 100 48.9844C100 61.5666 95.1576 73.0408 87.1992 81.7162C85.0381 84.0719 88.0033 85.7242 91.016 87.4031C93.9707 89.0498 96.9711 90.7219 95.2273 93.1078C93.3059 95.7369 82.8891 99.0994 72.0609 99.6537ZM42.9688 42.8613C42.9688 47.0883 39.4709 50.515 35.1562 50.515C30.8416 50.515 27.3438 47.0883 27.3438 42.8613C27.3438 40.0264 28.917 37.5516 31.2547 36.2287C31.3893 39.9145 34.4197 42.8611 38.1385 42.8611H42.9688V42.8613ZM67.1828 36.2287C67.0482 39.9145 64.0178 42.8611 60.299 42.8611H55.4688V42.8613C55.4688 47.0883 58.9666 50.515 63.2812 50.515C67.5959 50.515 71.0938 47.0883 71.0938 42.8613C71.0938 40.0264 69.5205 37.5516 67.1828 36.2287Z" fill="url(#paint0_linear_17_259)"/>
</g>
<defs>
<linearGradient id="paint0_linear_17_259" x1="-10.0089" y1="7.49878" x2="65.0292" y2="125.01" gradientUnits="userSpaceOnUse">
<stop stop-color="white"/>
<stop offset="1" stop-color="white" stop-opacity="0"/>
</linearGradient>
<clipPath id="clip0_17_259">
<rect width="100" height="100" fill="white"/>
</clipPath>
</defs>
</svg>
