<svg width="14" height="15" viewBox="0 0 14 15" fill="none" xmlns="http://www.w3.org/2000/svg">
<path fill-rule="evenodd" clip-rule="evenodd" d="M3.11231 12.2096C3.06749 12.1675 3.02316 12.1245 2.97935 12.0807C0.66639 9.76775 0.66639 6.0177 2.97935 3.70476C5.29229 1.39179 12.6623 1.23706 12.6623 1.23706C12.6623 1.23706 13.6682 9.76775 11.3553 12.0807C9.30109 14.1349 6.11336 14.3647 3.80555 12.7701L5.6651 10.4881L8.63777 9.84633L6.2112 9.60375L7.75332 8.03358L9.50871 7.64903L8.12065 7.23796L9.50871 4.73393L7.53433 6.94852L6.77189 5.87263L7.04028 7.64903L5.6651 9.19931L5.02764 7.23794V9.84633L3.11231 12.2096Z" fill="#63BC5A"/>
</svg>
