<svg width="14" height="15" viewBox="0 0 14 15" fill="none" xmlns="http://www.w3.org/2000/svg">
<g clip-path="url(#clip0_134_515)">
<path fill-rule="evenodd" clip-rule="evenodd" d="M10.4293 1.96661L10.4695 5.49531L7.39171 6.97276L7.35376 3.641L10.4293 1.96661Z" fill="#73CEC0"/>
<path fill-rule="evenodd" clip-rule="evenodd" d="M13.5148 7.52692L10.468 9.26964L7.41943 7.52417L10.4664 5.92365L13.5148 7.52692Z" fill="#73CEC0"/>
<path fill-rule="evenodd" clip-rule="evenodd" d="M6.87757 7.52692L3.83081 9.26964L0.782227 7.52417L3.82923 5.92365L6.87757 7.52692Z" fill="#73CEC0"/>
<path fill-rule="evenodd" clip-rule="evenodd" d="M3.79663 1.95227L6.95896 3.51845L6.8781 6.9315L3.89228 5.45274L3.79663 1.95227Z" fill="#73CEC0"/>
<path fill-rule="evenodd" clip-rule="evenodd" d="M10.5158 13.0482L7.35352 11.482L7.43437 8.06897L10.4202 9.54775L10.5158 13.0482Z" fill="#73CEC0"/>
<path fill-rule="evenodd" clip-rule="evenodd" d="M3.90592 13.0801L3.86572 9.55137L6.9435 8.07391L6.98145 11.4056L3.90592 13.0801Z" fill="#73CEC0"/>
</g>
<defs>
<clipPath id="clip0_134_515">
<rect width="13.0588" height="13.0588" fill="white" transform="translate(0.627686 0.970703)"/>
</clipPath>
</defs>
</svg>
