<svg width="220" height="220" viewBox="0 0 92 93" fill="none" xmlns="http://www.w3.org/2000/svg">
<mask id="path-1-inside-1_18_370" fill="white">
<path d="M24.4025 33.3927L44.9518 43.6674V20.5494L24.4025 7.70602V33.3927Z"/>
<path d="M47.5205 20.5494V43.6674L68.0698 33.3927V7.70602L47.5205 20.5494Z"/>
<path d="M68.0698 59.0794L47.5205 48.8047V74.4914L68.0698 84.7661V59.0794Z"/>
<path d="M44.9518 74.4914V48.8047L24.4025 59.0794V84.7661L44.9518 74.4914Z"/>
<path d="M68.0698 35.9614L47.5205 46.2361L68.0698 56.5107L91.1879 46.2361L68.0698 35.9614Z"/>
<path d="M24.4025 35.9614L44.9518 46.2361L21.8338 56.5107L1.28442 46.2361L24.4025 35.9614Z"/>
</mask>
<path d="M44.9518 43.6674L28.8694 75.8322L80.9132 101.854V43.6674H44.9518ZM24.4025 33.3927H-11.5589V55.6181L8.32004 65.5576L24.4025 33.3927ZM24.4025 7.70602L43.4619 -22.7892L-11.5589 -57.1772V7.70602H24.4025ZM44.9518 20.5494H80.9132V0.617867L64.0113 -9.94581L44.9518 20.5494ZM47.5205 43.6674H11.5591V101.854L63.6029 75.8322L47.5205 43.6674ZM47.5205 20.5494L28.461 -9.94581L11.5591 0.617866V20.5494H47.5205ZM68.0698 7.70602H104.031V-57.1772L49.0103 -22.7892L68.0698 7.70602ZM68.0698 33.3927L84.1523 65.5576L104.031 55.6181V33.3927H68.0698ZM47.5205 48.8047L63.6029 16.6399L11.5591 -9.38199V48.8047H47.5205ZM68.0698 59.0794H104.031V36.8541L84.1523 26.9146L68.0698 59.0794ZM68.0698 84.7661L51.9874 116.931L104.031 142.953V84.7661H68.0698ZM47.5205 74.4914H11.5591V96.7168L31.4381 106.656L47.5205 74.4914ZM44.9518 48.8047H80.9132V-9.382L28.8694 16.6399L44.9518 48.8047ZM44.9518 74.4914L61.0342 106.656L80.9132 96.7168V74.4914H44.9518ZM24.4025 84.7661H-11.5589V142.953L40.4849 116.931L24.4025 84.7661ZM24.4025 59.0794L8.32003 26.9146L-11.5589 36.8541V59.0794H24.4025ZM47.5205 46.2361L31.4381 14.0712L-32.8916 46.2361L31.4381 78.4009L47.5205 46.2361ZM68.0698 35.9614L82.6751 3.09947L67.1668 -3.79313L51.9874 3.79656L68.0698 35.9614ZM91.1879 46.2361L105.793 79.098L179.732 46.2361L105.793 13.3742L91.1879 46.2361ZM68.0698 56.5107L51.9874 88.6756L67.1668 96.2653L82.6751 89.3727L68.0698 56.5107ZM44.9518 46.2361L59.5571 79.098L129.191 48.1496L61.0342 14.0712L44.9518 46.2361ZM24.4025 35.9614L40.4849 3.79656L25.3055 -3.79313L9.79715 3.09947L24.4025 35.9614ZM1.28442 46.2361L-13.3209 13.3742L-82.9547 44.3225L-14.798 78.4009L1.28442 46.2361ZM21.8338 56.5107L5.75137 88.6756L20.9307 96.2653L36.4391 89.3727L21.8338 56.5107ZM61.0342 11.5026L40.4849 1.22789L8.32004 65.5576L28.8694 75.8322L61.0342 11.5026ZM60.3638 33.3927V7.70602H-11.5589V33.3927H60.3638ZM5.34296 38.2012L25.8923 51.0446L64.0113 -9.94581L43.4619 -22.7892L5.34296 38.2012ZM8.99043 20.5494V43.6674H80.9132V20.5494H8.99043ZM83.4819 43.6674V20.5494H11.5591V43.6674H83.4819ZM66.58 51.0446L87.1293 38.2012L49.0103 -22.7892L28.461 -9.94581L66.58 51.0446ZM32.1085 7.70602V33.3927H104.031V7.70602H32.1085ZM51.9874 1.22789L31.4381 11.5026L63.6029 75.8322L84.1523 65.5576L51.9874 1.22789ZM31.4381 80.9696L51.9874 91.2443L84.1523 26.9146L63.6029 16.6399L31.4381 80.9696ZM32.1085 59.0794V84.7661H104.031V59.0794H32.1085ZM84.1523 52.6013L63.6029 42.3266L31.4381 106.656L51.9874 116.931L84.1523 52.6013ZM83.4819 74.4914V48.8047H11.5591V74.4914H83.4819ZM8.99043 48.8047V74.4914H80.9132V48.8047H8.99043ZM28.8694 42.3266L8.32003 52.6013L40.4849 116.931L61.0342 106.656L28.8694 42.3266ZM60.3638 84.7661V59.0794H-11.5589V84.7661H60.3638ZM40.4849 91.2443L61.0342 80.9696L28.8694 16.6399L8.32003 26.9146L40.4849 91.2443ZM63.6029 78.4009L84.1523 68.1262L51.9874 3.79656L31.4381 14.0712L63.6029 78.4009ZM53.4645 68.8233L76.5826 79.098L105.793 13.3742L82.6751 3.09947L53.4645 68.8233ZM76.5826 13.3742L53.4645 23.6488L82.6751 89.3727L105.793 79.098L76.5826 13.3742ZM84.1523 24.3459L63.6029 14.0712L31.4381 78.4009L51.9874 88.6756L84.1523 24.3459ZM61.0342 14.0712L40.4849 3.79656L8.32003 68.1262L28.8694 78.4009L61.0342 14.0712ZM9.79715 3.09947L-13.3209 13.3742L15.8897 79.098L39.0078 68.8233L9.79715 3.09947ZM-14.798 78.4009L5.75137 88.6756L37.9162 24.3459L17.3668 14.0712L-14.798 78.4009ZM36.4391 89.3727L59.5571 79.098L30.3465 13.3742L7.22849 23.6488L36.4391 89.3727Z" fill="url(#paint0_linear_18_370)" mask="url(#path-1-inside-1_18_370)"/>
<defs>
<linearGradient id="paint0_linear_18_370" x1="1" y1="7.99997" x2="91" y2="85" gradientUnits="userSpaceOnUse">
<stop stop-color="white"/>
<stop offset="1" stop-color="white" stop-opacity="0"/>
</linearGradient>
</defs>
</svg>
