<svg width="200" height="200" viewBox="0 0 100 100" fill="none" xmlns="http://www.w3.org/2000/svg">
<g clip-path="url(#clip0_17_276)">
<path fill-rule="evenodd" clip-rule="evenodd" d="M83.5588 76.8455C93.657 68.7711 100 57.1047 100 44.1309C100 19.758 77.6143 0 50 0C22.3857 0 0 19.758 0 44.1309C0 56.6363 5.8933 67.927 15.3624 75.9572C14.7885 77.9387 14.4737 80.0939 14.4737 82.3477C14.4737 92.0967 20.3646 100 27.6316 100C32.3535 100 36.4945 96.6631 38.8158 91.6512C41.1371 96.6631 45.2781 100 50 100C54.3043 100 58.1258 97.2273 60.5264 92.9408C62.927 97.2273 66.7484 100 71.0525 100C78.3195 100 84.2105 92.0967 84.2105 82.3477C84.2105 80.4266 83.9816 78.577 83.5588 76.8455ZM78.9475 45.0061C78.9475 57.3799 65.6926 67.4109 49.3422 67.4109C32.9916 67.4109 19.7369 57.3799 19.7369 45.0061C19.7369 32.6322 32.9916 22.6012 49.3422 22.6012C65.6926 22.6012 78.9475 32.6322 78.9475 45.0061Z" fill="url(#paint0_linear_17_276)"/>
</g>
<defs>
<linearGradient id="paint0_linear_17_276" x1="-10.0089" y1="7.49878" x2="65.0292" y2="125.01" gradientUnits="userSpaceOnUse">
<stop stop-color="white"/>
<stop offset="1" stop-color="white" stop-opacity="0"/>
</linearGradient>
<clipPath id="clip0_17_276">
<rect width="100" height="100" fill="white"/>
</clipPath>
</defs>
</svg>
