<svg width="14" height="15" viewBox="0 0 14 15" fill="none" xmlns="http://www.w3.org/2000/svg">
<g clip-path="url(#clip0_142_573)">
<path fill-rule="evenodd" clip-rule="evenodd" d="M11.5395 11.0057C12.8582 9.95128 13.6865 8.42778 13.6865 6.73355C13.6865 3.55074 10.7632 0.970581 7.1571 0.970581C3.551 0.970581 0.627686 3.55074 0.627686 6.73355C0.627686 8.36662 1.39728 9.84104 2.63383 10.8897C2.55889 11.1485 2.51778 11.4299 2.51778 11.7242C2.51778 12.9973 3.28707 14.0294 4.23605 14.0294C4.85267 14.0294 5.39344 13.5936 5.69657 12.9391C5.99971 13.5936 6.54048 14.0294 7.1571 14.0294C7.71919 14.0294 8.21823 13.6673 8.53172 13.1076C8.8452 13.6673 9.34424 14.0294 9.90631 14.0294C10.8553 14.0294 11.6246 12.9973 11.6246 11.7242C11.6246 11.4733 11.5947 11.2318 11.5395 11.0057ZM10.9373 6.84784C10.9373 8.46372 9.20636 9.77366 7.07119 9.77366C4.936 9.77366 3.20509 8.46372 3.20509 6.84784C3.20509 5.23197 4.936 3.92203 7.07119 3.92203C9.20636 3.92203 10.9373 5.23197 10.9373 6.84784Z" fill="#B567CE"/>
</g>
<defs>
<clipPath id="clip0_142_573">
<rect width="13.0588" height="13.0588" fill="white" transform="translate(0.627686 0.970581)"/>
</clipPath>
</defs>
</svg>
