<svg width="200" height="200" viewBox="0 0 100 100" fill="none" xmlns="http://www.w3.org/2000/svg">
<g clip-path="url(#clip0_17_280)">
<path fill-rule="evenodd" clip-rule="evenodd" d="M89.0483 83.0423C89.0483 83.0423 76.439 93.1554 51.3468 88.9704C32.3097 85.7952 22.1562 64.8097 22.1562 53.5296C22.1562 26.7855 41.9503 20.6993 55.3325 20.6993C68.7145 20.6993 77.4444 33.7462 77.4444 43.8478C77.4444 53.9493 70.2999 62.7849 59.1813 62.7849C48.063 62.7849 44.77 54.9792 44.77 47.8028C44.77 40.6267 50.5761 38.0983 55.8712 38.0983C61.1663 38.0983 62.9794 42.619 62.9794 46.5044C62.9794 50.3899 59.9647 51.7813 57.4503 51.7813C54.9358 51.7813 54.6872 50.5128 53.7249 49.1796C52.7624 47.8466 54.9522 42.8005 51.3468 42.8005C47.7413 42.8005 47.0692 48.6015 47.0692 48.6015C47.0692 48.6015 48.3837 59.7993 59.1813 59.6062C69.9792 59.4128 75.1017 51.0651 73.613 42.8005C72.1243 34.5356 64.1034 25.7534 50.0265 27.528C35.9495 29.3026 30.202 43.5261 32.7354 58.7261C35.2688 73.9263 53.4784 82.7333 67.7958 79.5648C82.1134 76.3962 96.3733 66.031 96.3733 39.7511C96.3733 13.471 73.613 -2.32572 46.4733 0.277664C19.3337 2.88104 2.48662 26.6083 3.56498 55.1171C4.64334 83.6259 31.6948 99.1526 54.5696 99.9528C77.4444 100.753 91.4677 87.5116 91.4677 87.5116C91.4677 87.5116 94.6214 84.6993 93.3849 82.5032C92.1485 80.3071 89.0483 83.0423 89.0483 83.0423Z" fill="url(#paint0_linear_17_280)"/>
</g>
<defs>
<linearGradient id="paint0_linear_17_280" x1="-5.77788" y1="7.49651" x2="71.4469" y2="119.806" gradientUnits="userSpaceOnUse">
<stop stop-color="white"/>
<stop offset="1" stop-color="white" stop-opacity="0"/>
</linearGradient>
<clipPath id="clip0_17_280">
<rect width="100" height="100" fill="white"/>
</clipPath>
</defs>
</svg>
