<svg width="14" height="14" viewBox="0 0 14 14" fill="none" xmlns="http://www.w3.org/2000/svg">
<g clip-path="url(#clip0_134_459)">
<path fill-rule="evenodd" clip-rule="evenodd" d="M10.706 6.71326C10.7053 6.71223 10.705 6.71096 10.7052 6.70971L11.5383 1.85177C11.5386 1.84954 11.5406 1.8479 11.5429 1.8479L11.8065 1.8479C11.8086 1.8479 11.8104 1.84922 11.811 1.85116L13.6879 7.79403C13.6885 7.79586 13.6879 7.7979 13.6863 7.7991L12.3024 8.87959C12.3004 8.8812 12.2974 8.88079 12.2958 8.87867L10.706 6.71326ZM0.602295 9.93371C0.602295 9.93572 0.60359 9.93751 0.605506 9.93815L3.45827 10.8709C3.45965 10.8714 3.46118 10.8711 3.46238 10.8703L9.83899 6.46807C9.84006 6.46733 9.84077 6.46618 9.84095 6.46491L10.5248 1.87668C10.5252 1.87386 10.523 1.87133 10.5202 1.87133H4.87207C4.87067 1.87133 4.86937 1.87195 4.86847 1.87302L0.603367 7.01822C0.602674 7.01907 0.602295 7.02011 0.602295 7.02121L0.602295 9.93371ZM4.64704 11.1086L7.76363 12.1295C7.76503 12.1299 7.76659 12.1297 7.76779 12.1288L11.4783 9.46726C11.4804 9.46581 11.4809 9.46298 11.4795 9.46089L10.0885 7.39099C10.0871 7.38882 10.0841 7.38826 10.082 7.38974L4.64704 11.1086Z" fill="#C5B78C"/>
</g>
<defs>
<clipPath id="clip0_134_459">
<rect width="13.0588" height="13.0588" fill="white" transform="translate(0.627686 0.470581)"/>
</clipPath>
</defs>
</svg>
