<svg width="190" height="190" viewBox="0 0 100 100" fill="none" xmlns="http://www.w3.org/2000/svg">
<g clip-path="url(#clip0_17_272)">
<path fill-rule="evenodd" clip-rule="evenodd" d="M77.1747 47.8068C77.169 47.799 77.1667 47.7892 77.1682 47.7796L83.5479 10.5792C83.5508 10.5621 83.5659 10.5496 83.5831 10.5496H85.6022C85.6178 10.5496 85.6315 10.5597 85.6362 10.5745L100.009 56.083C100.014 56.097 100.009 56.1126 99.9971 56.1218L89.3997 64.3958C89.3838 64.4082 89.361 64.405 89.3491 64.3888L77.1747 47.8068ZM-0.196045 72.4679C-0.196045 72.4834 -0.186124 72.497 -0.171457 72.5019L21.6741 79.6447C21.6846 79.6482 21.6963 79.6464 21.7055 79.6402L70.5354 45.9292C70.5436 45.9236 70.5491 45.9148 70.5504 45.905L75.7868 10.77C75.7901 10.7484 75.7733 10.729 75.7516 10.729H32.5004C32.4897 10.729 32.4797 10.7337 32.4729 10.7419L-0.187837 50.1421C-0.193143 50.1486 -0.196045 50.1566 -0.196045 50.165V72.4679ZM30.7772 81.4646L54.643 89.2824C54.6538 89.2859 54.6657 89.2841 54.6749 89.2775L83.0887 68.896C83.1045 68.8849 83.1084 68.8632 83.0977 68.8472L72.4461 52.9966C72.435 52.98 72.4127 52.9757 72.3963 52.9871L30.7772 81.4646Z" fill="url(#paint0_linear_17_272)"/>
</g>
<defs>
<linearGradient id="paint0_linear_17_272" x1="-10.2257" y1="16.4537" x2="41.9818" y2="120.508" gradientUnits="userSpaceOnUse">
<stop stop-color="white"/>
<stop offset="1" stop-color="white" stop-opacity="0"/>
</linearGradient>
<clipPath id="clip0_17_272">
<rect width="100" height="100" fill="white"/>
</clipPath>
</defs>
</svg>
