<svg width="14" height="15" viewBox="0 0 14 15" fill="none" xmlns="http://www.w3.org/2000/svg">
<g clip-path="url(#clip0_134_733)">
<path fill-rule="evenodd" clip-rule="evenodd" d="M0.629233 7.46248C0.627496 7.45952 0.627495 7.45585 0.629231 7.45287L3.91291 1.84253C3.91462 1.83962 3.91776 1.83783 3.92113 1.83783L10.4295 1.83783C10.4329 1.83783 10.4361 1.83964 10.4378 1.84257L13.6855 7.45292C13.6872 7.45585 13.6872 7.4595 13.6855 7.46243L10.4378 13.0665C10.4361 13.0694 10.4329 13.0712 10.4295 13.0712H3.92113C3.91776 13.0712 3.91462 13.0694 3.91291 13.0665L0.629233 7.46248ZM10.1827 7.45452C10.1827 9.12483 8.82867 10.4789 7.15836 10.4789C5.48806 10.4789 4.13399 9.12483 4.13399 7.45452C4.13399 5.78419 5.48806 4.43016 7.15836 4.43016C8.82867 4.43016 10.1827 5.78419 10.1827 7.45452Z" fill="#5A8EA2"/>
</g>
<defs>
<clipPath id="clip0_134_733">
<rect width="13.0588" height="13.0588" fill="white" transform="translate(0.627686 0.970581)"/>
</clipPath>
</defs>
</svg>
