<svg width="200" height="200" viewBox="0 0 100 100" fill="none" xmlns="http://www.w3.org/2000/svg">
<path fill-rule="evenodd" clip-rule="evenodd" d="M0.00998256 49.7149C-0.00332121 49.6922 -0.00332789 49.6641 0.00996477 49.6412L25.1553 6.67918C25.1684 6.6569 25.1924 6.64319 25.2182 6.64319H75.0574C75.0834 6.64319 75.1074 6.65702 75.1205 6.6795L99.99 49.6416C100.003 49.6641 100.003 49.692 99.99 49.7145L75.1205 92.6283C75.1074 92.6508 75.0834 92.6647 75.0574 92.6647H25.2182C25.1924 92.6647 25.1684 92.651 25.1553 92.6287L0.00998256 49.7149ZM73.1674 49.6539C73.1674 62.4446 62.7984 72.8135 50.0078 72.8135C37.2172 72.8135 26.8482 62.4446 26.8482 49.6539C26.8482 36.8631 37.2172 26.4944 50.0078 26.4944C62.7984 26.4944 73.1674 36.8631 73.1674 49.6539Z" fill="url(#paint0_linear_17_263)"/>
<defs>
<linearGradient id="paint0_linear_17_263" x1="-10.0089" y1="13.0938" x2="50.0399" y2="122.412" gradientUnits="userSpaceOnUse">
<stop stop-color="white"/>
<stop offset="1" stop-color="white" stop-opacity="0"/>
</linearGradient>
</defs>
</svg>
